<svg xmlns="http://www.w3.org/2000/svg" width="1000" height="430" viewBox="0 0 1000 430">
<rect width="1000" height="430" rx="22" fill="#FAF8F3"/><text x="42" y="42" font-family="Arial" font-size="22" font-weight="700" fill="#1A1F2C">Labeled worksheet model · Live You Try It</text>
<g font-family="Arial" font-size="19"><rect x="42" y="68" width="916" height="44" fill="#1A1F2C"/><text x="62" y="97" fill="#fff">Row</text><text x="150" y="97" fill="#fff">B · Item</text><text x="580" y="97" fill="#fff">C · Student cell</text>
<g fill="#fff" stroke="#D6D1C6"><rect x="42" y="112" width="916" height="48"/><rect x="42" y="160" width="916" height="48"/><rect x="42" y="208" width="916" height="48"/><rect x="42" y="256" width="916" height="48"/><rect x="42" y="320" width="916" height="48"/><rect x="42" y="368" width="916" height="48"/></g>
<g fill="#1A1F2C"><text x="62" y="143">51</text><text x="150" y="143">Face value</text><text x="62" y="191">52</text><text x="150" y="191">Stated interest rate</text><text x="62" y="239">53</text><text x="150" y="239">Quoted price</text><text x="62" y="287">54</text><text x="150" y="287">Number of bonds</text><text x="62" y="351">56</text><text x="150" y="351">Dollar price per bond</text><text x="62" y="399">60</text><text x="150" y="399">Current yield</text></g>
<g font-family="Courier New" font-weight="700" fill="#355773"><text x="580" y="143">1000</text><text x="580" y="191">4%</text><text x="580" y="239">99.59</text><text x="580" y="287">5</text><text x="580" y="351">=C53/100*C51</text><text x="580" y="399">=C58/C56</text></g></g>
</svg>
