<svg xmlns="http://www.w3.org/2000/svg" width="1000" height="390" viewBox="0 0 1000 390"><style>text{font-family:Arial,sans-serif;fill:#1A1F2C}.t{font-size:22px;font-weight:700}.c{font-size:17px}.f{font:700 18px monospace;fill:#355773}</style><rect width="1000" height="390" rx="18" fill="#FAF8F3"/><text x="28" y="38" class="t">Wait-time model — inputs first, formulas second</text><rect x="28" y="65" width="650" height="42" fill="#355773"/><text x="48" y="92" fill="#fff" class="c" font-weight="700">Row</text><text x="240" y="92" fill="#fff" class="c" font-weight="700">C</text><text x="320" y="92" fill="#fff" class="c" font-weight="700">D</text><text x="400" y="92" fill="#fff" class="c" font-weight="700">E</text><text x="480" y="92" fill="#fff" class="c" font-weight="700">F</text><text x="560" y="92" fill="#fff" class="c" font-weight="700">G</text><rect x="210" y="108" width="468" height="48" fill="#FFF2CC"/><g class="c"><text x="48" y="139">Wait time inputs</text><text x="240" y="139">12</text><text x="320" y="139">15</text><text x="400" y="139">18</text><text x="480" y="139">11</text><text x="560" y="139">42</text></g><rect x="28" y="178" width="650" height="48" fill="#EAF3EC"/><rect x="28" y="230" width="650" height="48" fill="#EAF3EC"/><rect x="28" y="282" width="650" height="48" fill="#EAF3EC"/><text x="48" y="209" class="c">Mean</text><text x="210" y="209" class="f">=AVERAGE(C8:G8)</text><text x="630" y="209" class="c" text-anchor="end">19.6</text><text x="48" y="261" class="c">Median</text><text x="210" y="261" class="f">=MEDIAN(C8:G8)</text><text x="630" y="261" class="c" text-anchor="end">15.0</text><text x="48" y="313" class="c">Difference</text><text x="210" y="313" class="f">=C10-C11</text><text x="630" y="313" class="c" text-anchor="end">4.6</text><rect x="710" y="85" width="260" height="210" rx="12" fill="#FFF7E6" stroke="#B8843D"/><text x="735" y="122" class="c" font-weight="700">Reasonableness</text><text x="735" y="158" class="c">11 ≤ mean ≤ 42</text><text x="735" y="194" class="c">Outlier pulls mean up</text><text x="735" y="230" class="c">Outputs are formulas,</text><text x="735" y="258" class="c">not typed answers.</text></svg>
