<svg xmlns="http://www.w3.org/2000/svg" width="1000" height="390" viewBox="0 0 1000 390"><style>text{font-family:Arial,sans-serif;fill:#1A1F2C}.t{font-size:22px;font-weight:700}.c{font-size:17px}.f{font:700 18px monospace;fill:#355773}</style><rect width="1000" height="390" rx="18" fill="#FAF8F3"/><text x="28" y="38" class="t">Income statement model — formulas reference labeled inputs</text><rect x="28" y="63" width="944" height="50" rx="8" fill="#fff" stroke="#C9CED6"/><text x="48" y="94" class="c" font-weight="700">fx</text><text x="90" y="94" class="f">=B8-B6</text><text x="700" y="94" class="c">Selected cell: B9</text><g><rect x="28" y="135" width="600" height="42" fill="#355773"/><text x="48" y="162" fill="#fff" class="c" font-weight="700">Label</text><text x="390" y="162" fill="#fff" class="c" font-weight="700">Amount</text></g><g class="c"><text x="48" y="207">Net Revenue</text><text x="48" y="247">Cost of Services</text><text x="48" y="287">Operating Expenses</text><text x="48" y="327" font-weight="700">Gross Profit</text><text x="48" y="367" font-weight="700">Net Income</text><text x="600" y="207" text-anchor="end">$4,250,000</text><text x="600" y="247" text-anchor="end">$2,380,000</text><text x="600" y="287" text-anchor="end">$1,420,000</text></g><rect x="350" y="294" width="277" height="38" fill="#EAF3EC"/><rect x="350" y="334" width="277" height="38" fill="#EAF3EC"/><text x="372" y="321" class="f">=B4-B5</text><text x="372" y="361" class="f">=B8-B6</text><rect x="660" y="145" width="312" height="205" rx="12" fill="#FFF7E6" stroke="#B8843D"/><text x="684" y="180" class="c" font-weight="700">Modeling distinction</text><text x="684" y="220" class="c">Inputs: typed amounts</text><text x="684" y="254" class="c">Outputs: formulas</text><text x="684" y="288" class="c">Profit ≠ cash</text><text x="684" y="322" class="c">Expected net income: $450,000</text></svg>
