<svg xmlns="http://www.w3.org/2000/svg" width="1000" height="430" viewBox="0 0 1000 430"><style>text{font-family:Arial,sans-serif;fill:#1A1F2C}.t{font-size:22px;font-weight:700}.h{font-size:16px;font-weight:700;fill:#fff}.c{font-size:16px}.f{font:700 17px monospace;fill:#355773}.input{fill:#FFF2CC}.out{fill:#E2F0D9}.grid{stroke:#C9CED6}</style><rect width="1000" height="430" rx="18" fill="#FAF8F3"/><text x="30" y="38" class="t">Balance sheet model — labels, inputs, calculated outputs</text><rect x="30" y="65" width="610" height="38" fill="#355773"/><text x="48" y="90" class="h">A · Label</text><text x="360" y="90" class="h">B · Amount</text><g class="grid"><path d="M30 103H640M30 147H640M30 191H640M30 235H640M30 279H640M30 323H640M30 367H640M30 411H640M340 65V411"/></g><g class="c"><text x="48" y="132">Cash</text><text x="48" y="176">Accounts Receivable</text><text x="48" y="220">Medical Supplies</text><text x="48" y="264">Equipment (net)</text><text x="48" y="308" font-weight="700">Total Assets</text><text x="48" y="352">Total Liabilities</text><text x="48" y="396">Owner's Equity</text></g><g class="input"><rect x="341" y="104" width="298" height="42"/><rect x="341" y="148" width="298" height="42"/><rect x="341" y="192" width="298" height="42"/><rect x="341" y="236" width="298" height="42"/></g><rect x="341" y="280" width="298" height="42" class="out"/><g class="c" text-anchor="end"><text x="615" y="132">$412,000</text><text x="615" y="176">$680,000</text><text x="615" y="220">$95,000</text><text x="615" y="264">$1,840,000</text><text x="615" y="352">$1,305,000</text><text x="615" y="396">$1,722,000</text></g><text x="365" y="308" class="f">=SUM(B4:B7)</text><rect x="670" y="90" width="300" height="110" rx="10" fill="#EAF3EC" stroke="#4A7C5E"/><text x="690" y="120" class="c" font-weight="700">Selected cell: B8</text><text x="690" y="153" class="f">=SUM(B4:B7)</text><text x="690" y="182" class="c">Expected: $3,027,000</text><rect x="670" y="225" width="300" height="125" rx="10" fill="#FFF7E6" stroke="#B8843D"/><text x="690" y="257" class="c" font-weight="700">Reasonableness check</text><text x="690" y="288" class="c">Total assets must equal</text><text x="690" y="315" class="c">liabilities + equity.</text></svg>
